<svg version="1.0" xmlns="http://www.w3.org/2000/svg"
 width="400.000000pt" height="400.000000pt" viewBox="0 0 400.000000 400.000000"
 preserveAspectRatio="xMidYMid meet">

<g transform="translate(0.000000,400.000000) scale(0.100000,-0.100000)"
fill="#3f50b5" stroke="none">
<path d="M1752 3617 c-2 -159 -3 -169 -22 -174 -20 -5 -20 -14 -20 -344 0
-332 0 -339 -20 -339 -19 0 -20 -7 -20 -110 l0 -110 -75 0 -75 0 0 -790 0
-790 -25 0 -25 0 0 560 0 560 -36 0 c-28 0 -35 3 -32 18 2 11 14 18 36 20 l32
3 0 65 0 64 -225 0 -225 0 0 -65 0 -65 30 0 c23 0 30 -4 30 -20 0 -16 -7 -20
-30 -20 l-30 0 0 -876 0 -875 -27 3 -28 3 -3 793 -2 793 -89 -48 -89 -48 -22
-100 c-13 -55 -27 -104 -32 -109 -4 -6 -52 -33 -105 -62 l-98 -51 -3 -537 -2
-537 -28 3 -27 3 -3 278 c-1 152 -6 277 -11 277 -4 0 -102 -29 -217 -64 l-209
-64 -3 -431 -2 -431 1980 0 1980 0 0 500 0 500 -220 0 -220 0 -2 -333 -3 -332
-25 0 -25 0 -3 692 -2 692 -23 3 c-18 2 -23 10 -25 41 -3 34 -6 37 -33 37 -26
0 -29 3 -29 30 0 29 -1 30 -49 30 l-49 0 -8 148 -8 147 -8 -135 c-5 -74 -11
-141 -13 -147 -3 -8 -22 -13 -50 -13 -43 0 -45 -1 -45 -29 0 -26 -4 -30 -32
-33 -30 -3 -33 -6 -36 -40 -2 -25 -8 -38 -18 -38 -12 0 -14 -73 -14 -510 l0
-510 -75 0 -75 0 -2 -182 c-3 -175 -4 -183 -23 -183 -20 0 -20 8 -23 493 l-2
492 -95 0 c-51 0 -96 3 -99 8 -2 4 -8 77 -12 162 -9 171 -16 159 -31 -55 l-8
-110 -62 -3 -63 -3 0 145 0 145 -82 3 -83 3 -105 197 -105 198 -37 0 -38 0 0
-840 0 -840 -25 0 -25 0 0 1105 0 1105 -75 0 -75 0 0 110 c0 103 -1 110 -20
110 -20 0 -20 7 -20 340 0 215 -4 340 -10 340 -6 0 -11 69 -13 173 l-3 172 -2
-168z m-157 -1137 c0 -18 -6 -26 -22 -28 -18 -3 -23 1 -23 21 0 28 9 39 30 35
9 -2 15 -14 15 -28z m65 0 c0 -20 -5 -30 -15 -30 -10 0 -15 10 -15 30 0 20 5
30 15 30 10 0 15 -10 15 -30z m75 0 c0 -18 -6 -26 -22 -28 -18 -3 -23 1 -23
21 0 28 9 39 30 35 9 -2 15 -14 15 -28z m63 -3 c2 -19 -1 -27 -12 -27 -11 0
-16 10 -16 31 0 38 24 35 28 -4z m72 3 c0 -23 -4 -30 -20 -30 -16 0 -20 7 -20
30 0 23 4 30 20 30 16 0 20 -7 20 -30z m60 0 c0 -31 -16 -41 -26 -15 -8 19 2
45 16 45 5 0 10 -13 10 -30z m-332 -83 c3 -12 -3 -17 -22 -17 -25 0 -35 18
-19 34 12 12 38 2 41 -17z m140 0 c3 -12 -3 -17 -22 -17 -25 0 -35 18 -19 34
12 12 38 2 41 -17z m62 3 c0 -11 -7 -20 -15 -20 -8 0 -15 9 -15 20 0 11 7 20
15 20 8 0 15 -9 15 -20z m130 0 c0 -21 -15 -27 -25 -10 -7 12 2 30 16 30 5 0
9 -9 9 -20z m-330 -85 c0 -20 -5 -25 -25 -25 -20 0 -25 5 -25 25 0 20 5 25 25
25 20 0 25 -5 25 -25z m60 0 c0 -16 -6 -25 -15 -25 -9 0 -15 9 -15 25 0 16 6
25 15 25 9 0 15 -9 15 -25z m78 -2 c3 -19 -1 -23 -22 -23 -21 0 -26 5 -26 26
0 21 4 25 23 22 14 -2 23 -11 25 -25z m62 2 c0 -16 -6 -25 -15 -25 -9 0 -15 9
-15 25 0 16 6 25 15 25 9 0 15 -9 15 -25z m70 0 c0 -18 -5 -25 -20 -25 -15 0
-20 7 -20 25 0 18 5 25 20 25 15 0 20 -7 20 -25z m60 0 c0 -26 -14 -33 -25
-15 -9 14 1 40 15 40 5 0 10 -11 10 -25z m-335 -75 c0 -29 -32 -41 -41 -16 -9
24 4 48 23 44 12 -2 18 -12 18 -28z m140 0 c0 -38 -39 -35 -43 3 -3 25 0 28
20 25 17 -2 23 -9 23 -28z m135 0 c0 -23 -4 -30 -20 -30 -16 0 -20 7 -20 30 0
23 4 30 20 30 16 0 20 -7 20 -30z m60 0 c0 -31 -16 -41 -26 -15 -8 19 2 45 16
45 5 0 10 -13 10 -30z m-332 -87 c-2 -20 -9 -28 -23 -28 -14 0 -21 8 -23 28
-3 23 0 27 23 27 23 0 26 -4 23 -27z m60 0 c-4 -39 -28 -42 -28 -4 0 21 5 31
16 31 11 0 14 -8 12 -27z m77 -3 c0 -38 -39 -35 -43 3 -3 25 0 28 20 25 17 -2
23 -9 23 -28z m135 0 c0 -23 -4 -30 -20 -30 -16 0 -20 7 -20 30 0 23 4 30 20
30 16 0 20 -7 20 -30z m60 0 c0 -16 -4 -30 -9 -30 -12 0 -24 37 -16 50 12 20
25 10 25 -20z m-332 -72 c-2 -15 -11 -24 -25 -26 -19 -3 -23 1 -23 22 0 21 5
26 26 26 21 0 25 -4 22 -22z m140 0 c-2 -15 -11 -24 -25 -26 -19 -3 -23 1 -23
22 0 21 5 26 26 26 21 0 25 -4 22 -22z m62 -3 c0 -16 -6 -25 -15 -25 -9 0 -15
9 -15 25 0 16 6 25 15 25 9 0 15 -9 15 -25z m70 0 c0 -18 -5 -25 -20 -25 -15
0 -20 7 -20 25 0 18 5 25 20 25 15 0 20 -7 20 -25z m-772 -67 c3 -13 -3 -18
-22 -18 -20 0 -26 5 -26 21 0 15 5 20 22 17 13 -2 24 -11 26 -20z m62 2 c0
-11 -7 -20 -15 -20 -8 0 -15 9 -15 20 0 11 7 20 15 20 8 0 15 -9 15 -20z m70
0 c0 -13 -7 -20 -20 -20 -13 0 -20 7 -20 20 0 13 7 20 20 20 13 0 20 -7 20
-20z m68 -3 c2 -12 -3 -17 -17 -17 -12 0 -21 6 -21 13 0 31 32 34 38 4z m132
3 c0 -11 -7 -20 -15 -20 -15 0 -21 21 -8 33 12 13 23 7 23 -13z m168 -13 c4
-20 -25 -34 -40 -19 -15 15 -1 44 19 40 10 -2 19 -11 21 -21z m60 1 c-2 -13
-7 -23 -13 -23 -5 0 -11 10 -13 23 -2 15 2 22 13 22 11 0 15 -7 13 -22z m77
-3 c0 -30 -39 -27 -43 3 -3 20 0 23 20 20 15 -2 23 -10 23 -23z m63 3 c-5 -32
-28 -35 -28 -4 0 17 5 26 16 26 10 0 14 -7 12 -22z m132 -3 c0 -26 -14 -33
-25 -15 -9 14 1 40 15 40 5 0 10 -11 10 -25z m-835 -65 c0 -18 -6 -26 -22 -28
-18 -3 -23 1 -23 21 0 28 9 39 30 35 9 -2 15 -14 15 -28z m133 -3 c3 -22 -1
-27 -17 -27 -15 0 -21 6 -21 23 0 46 33 49 38 4z m70 -3 c-4 -25 -32 -24 -36
0 -4 21 18 40 31 27 5 -5 7 -17 5 -27z m72 0 c0 -15 -6 -24 -15 -24 -15 0 -21
40 -9 53 12 11 24 -3 24 -29z m60 6 c0 -31 -16 -41 -26 -15 -8 19 2 45 16 45
5 0 10 -13 10 -30z m230 -15 c0 -16 -6 -25 -15 -25 -9 0 -15 9 -15 25 0 16 6
25 15 25 9 0 15 -9 15 -25z m140 0 c0 -16 -6 -25 -15 -25 -9 0 -15 9 -15 25 0
16 6 25 15 25 9 0 15 -9 15 -25z m70 0 c0 -18 -5 -25 -20 -25 -15 0 -20 7 -20
25 0 18 5 25 20 25 15 0 20 -7 20 -25z m60 0 c0 -16 -6 -25 -15 -25 -15 0 -21
31 -8 43 13 14 23 6 23 -18z m-835 -70 c0 -30 -39 -27 -43 3 -3 20 0 23 20 20
15 -2 23 -10 23 -23z m63 3 c-5 -32 -28 -35 -28 -4 0 17 5 26 16 26 10 0 14
-7 12 -22z m72 -4 c0 -33 -33 -30 -38 4 -3 17 2 22 17 22 16 0 21 -6 21 -26z
m67 10 c8 -21 -13 -42 -28 -27 -13 13 -5 43 11 43 6 0 13 -7 17 -16z m133 -9
c0 -26 -14 -33 -25 -15 -9 14 1 40 15 40 5 0 10 -11 10 -25z m168 -12 c-2 -10
-12 -18 -23 -18 -11 0 -21 8 -23 18 -3 13 3 17 23 17 20 0 26 -4 23 -17z m62
-3 c0 -11 -7 -20 -15 -20 -8 0 -15 9 -15 20 0 11 7 20 15 20 8 0 15 -9 15 -20z
m78 3 c-2 -10 -13 -19 -26 -21 -17 -3 -22 2 -22 17 0 16 6 21 26 21 19 0 25
-5 22 -17z m62 -3 c0 -11 -7 -20 -15 -20 -8 0 -15 9 -15 20 0 11 7 20 15 20 8
0 15 -9 15 -20z m-702 -67 c-2 -20 -9 -28 -23 -28 -14 0 -21 8 -23 28 -3 23 0
27 23 27 23 0 26 -4 23 -27z m60 2 c-2 -14 -7 -26 -13 -26 -5 0 -11 12 -13 26
-2 18 1 25 13 25 12 0 15 -7 13 -25z m70 -2 c-2 -17 -9 -28 -18 -28 -9 0 -16
11 -18 28 -3 22 1 27 18 27 17 0 21 -5 18 -27z m140 2 c-2 -14 -7 -26 -13 -26
-5 0 -11 12 -13 26 -2 18 1 25 13 25 12 0 15 -7 13 -25z m62 -6 c0 -38 -24
-35 -28 4 -2 19 1 27 12 27 11 0 16 -10 16 -31z m165 -9 c0 -38 -39 -35 -43 3
-3 25 0 28 20 25 17 -2 23 -9 23 -28z m63 5 c-2 -14 -7 -26 -13 -26 -5 0 -11
12 -13 26 -2 18 1 25 13 25 12 0 15 -7 13 -25z m77 -5 c0 -38 -39 -35 -43 3
-3 25 0 28 20 25 17 -2 23 -9 23 -28z m63 3 c-4 -39 -28 -42 -28 -4 0 21 5 31
16 31 11 0 14 -8 12 -27z m70 0 c-2 -17 -9 -28 -18 -28 -9 0 -16 11 -18 28 -3
22 1 27 18 27 17 0 21 -5 18 -27z m62 -3 c0 -31 -16 -41 -26 -15 -8 19 2 45
16 45 5 0 10 -13 10 -30z m-770 -60 c0 -20 -5 -30 -15 -30 -10 0 -15 10 -15
30 0 20 5 30 15 30 10 0 15 -10 15 -30z m210 0 c0 -20 -5 -30 -15 -30 -10 0
-15 10 -15 30 0 20 5 30 15 30 10 0 15 -10 15 -30z m60 0 c0 -31 -16 -41 -26
-15 -8 19 2 45 16 45 5 0 10 -13 10 -30z m168 -17 c-2 -10 -13 -19 -26 -21
-17 -3 -22 2 -22 17 0 16 6 21 26 21 19 0 25 -5 22 -17z m140 0 c-2 -10 -13
-19 -26 -21 -17 -3 -22 2 -22 17 0 16 6 21 26 21 19 0 25 -5 22 -17z m132 -3
c0 -13 -7 -20 -20 -20 -13 0 -20 7 -20 20 0 13 7 20 20 20 13 0 20 -7 20 -20z
m1230 -10 c0 -11 -7 -20 -15 -20 -8 0 -15 9 -15 20 0 11 7 20 15 20 8 0 15 -9
15 -20z m60 0 c0 -11 -7 -20 -15 -20 -8 0 -15 9 -15 20 0 11 7 20 15 20 8 0
15 -9 15 -20z m78 -3 c2 -10 -3 -17 -12 -17 -10 0 -16 9 -16 21 0 24 23 21 28
-4z m62 3 c0 -11 -7 -20 -15 -20 -8 0 -15 9 -15 20 0 11 7 20 15 20 8 0 15 -9
15 -20z m78 -3 c2 -12 -3 -17 -17 -17 -12 0 -21 6 -21 13 0 31 32 34 38 4z
m-2283 -57 c0 -38 -39 -35 -43 3 -3 25 0 28 20 25 17 -2 23 -9 23 -28z m135
-1 c0 -24 -4 -30 -17 -27 -11 2 -19 14 -21 31 -3 22 1 27 17 27 17 0 21 -6 21
-31z m65 1 c0 -13 -6 -25 -12 -27 -16 -6 -27 21 -19 43 9 23 31 11 31 -16z
m135 0 c0 -31 -16 -41 -26 -15 -8 19 2 45 16 45 5 0 10 -13 10 -30z m230 -10
c0 -20 -5 -30 -15 -30 -10 0 -15 10 -15 30 0 20 5 30 15 30 10 0 15 -10 15
-30z m75 0 c0 -18 -6 -26 -22 -28 -18 -3 -23 1 -23 21 0 28 9 39 30 35 9 -2
15 -14 15 -28z m63 -3 c2 -19 -1 -27 -12 -27 -11 0 -16 10 -16 31 0 38 24 35
28 -4z m132 3 c0 -31 -16 -41 -26 -15 -8 19 2 45 16 45 5 0 10 -13 10 -30z
m1170 -15 c0 -16 -6 -25 -15 -25 -9 0 -15 9 -15 25 0 16 6 25 15 25 9 0 15 -9
15 -25z m140 0 c0 -16 -6 -25 -15 -25 -9 0 -15 9 -15 25 0 16 6 25 15 25 9 0
15 -9 15 -25z m140 0 c0 -18 -5 -25 -20 -25 -15 0 -20 7 -20 25 0 18 5 25 20
25 15 0 20 -7 20 -25z m70 0 c0 -18 -5 -25 -20 -25 -15 0 -20 7 -20 25 0 18 5
25 20 25 15 0 20 -7 20 -25z m-2350 -50 c0 -20 -5 -25 -25 -25 -20 0 -25 5
-25 25 0 20 5 25 25 25 20 0 25 -5 25 -25z m130 0 c0 -18 -5 -25 -20 -25 -15
0 -20 7 -20 25 0 18 5 25 20 25 15 0 20 -7 20 -25z m920 0 c0 -18 -5 -25 -20
-25 -15 0 -20 7 -20 25 0 18 5 25 20 25 15 0 20 -7 20 -25z m60 0 c0 -16 -6
-25 -15 -25 -9 0 -15 9 -15 25 0 16 6 25 15 25 9 0 15 -9 15 -25z m75 0 c0
-13 -8 -21 -22 -23 -19 -3 -23 1 -23 23 0 22 4 26 23 23 14 -2 22 -10 22 -23z
m-687 -12 c-2 -20 -9 -28 -23 -28 -14 0 -21 8 -23 28 -3 23 0 27 23 27 23 0
26 -4 23 -27z m140 0 c-2 -20 -9 -28 -23 -28 -14 0 -21 8 -23 28 -3 23 0 27
23 27 23 0 26 -4 23 -27z m130 0 c-2 -17 -9 -28 -18 -28 -9 0 -16 11 -18 28
-3 22 1 27 18 27 17 0 21 -5 18 -27z m62 -3 c0 -32 -14 -40 -24 -14 -10 27 -7
44 9 44 10 0 15 -10 15 -30z m1168 -12 c-2 -13 -7 -23 -13 -23 -5 0 -11 10
-13 23 -2 15 2 22 13 22 11 0 15 -7 13 -22z m60 0 c-2 -13 -7 -23 -13 -23 -5
0 -11 10 -13 23 -2 15 2 22 13 22 11 0 15 -7 13 -22z m77 -3 c0 -10 -6 -20
-12 -22 -8 -3 -13 5 -13 22 0 17 5 25 13 23 6 -3 12 -13 12 -23z m63 3 c-2
-13 -7 -23 -13 -23 -5 0 -11 10 -13 23 -2 15 2 22 13 22 11 0 15 -7 13 -22z
m79 6 c8 -21 -13 -42 -28 -27 -13 13 -5 43 11 43 6 0 13 -7 17 -16z m71 -6
c-2 -13 -10 -23 -18 -23 -8 0 -16 10 -18 23 -3 17 2 22 18 22 16 0 21 -5 18
-22z m-1300 -45 c-2 -17 -10 -29 -20 -31 -14 -3 -18 3 -18 27 0 25 4 31 21 31
16 0 20 -5 17 -27z m137 -3 c0 -38 -39 -35 -43 3 -3 25 0 28 20 25 17 -2 23
-9 23 -28z m-1705 -11 c0 -24 -23 -21 -28 4 -2 10 3 17 12 17 10 0 16 -9 16
-21z m140 1 c0 -11 -7 -20 -15 -20 -8 0 -15 9 -15 20 0 11 7 20 15 20 8 0 15
-9 15 -20z m78 3 c-2 -10 -10 -18 -18 -18 -8 0 -16 8 -18 18 -2 12 3 17 18 17
15 0 20 -5 18 -17z m132 -4 c0 -24 -23 -21 -28 4 -2 10 3 17 12 17 10 0 16 -9
16 -21z m168 4 c-2 -10 -12 -18 -23 -18 -11 0 -21 8 -23 18 -3 13 3 17 23 17
20 0 26 -4 23 -17z m62 -3 c0 -11 -7 -20 -15 -20 -8 0 -15 9 -15 20 0 11 7 20
15 20 8 0 15 -9 15 -20z m210 0 c0 -11 -7 -20 -15 -20 -8 0 -15 9 -15 20 0 11
7 20 15 20 8 0 15 -9 15 -20z m60 -1 c0 -24 -23 -21 -28 4 -2 10 3 17 12 17
10 0 16 -9 16 -21z m170 -14 c0 -20 -5 -25 -25 -25 -20 0 -25 5 -25 25 0 20 5
25 25 25 20 0 25 -5 25 -25z m60 0 c0 -16 -6 -25 -15 -25 -9 0 -15 9 -15 25 0
16 6 25 15 25 9 0 15 -9 15 -25z m80 0 c0 -20 -5 -25 -25 -25 -20 0 -25 5 -25
25 0 20 5 25 25 25 20 0 25 -5 25 -25z m130 0 c0 -18 -5 -25 -20 -25 -15 0
-20 7 -20 25 0 18 5 25 20 25 15 0 20 -7 20 -25z m1230 -10 c0 -16 -6 -25 -15
-25 -9 0 -15 9 -15 25 0 16 6 25 15 25 9 0 15 -9 15 -25z m60 0 c0 -16 -6 -25
-15 -25 -9 0 -15 9 -15 25 0 16 6 25 15 25 9 0 15 -9 15 -25z m80 0 c0 -16 -6
-25 -15 -25 -9 0 -15 9 -15 25 0 16 6 25 15 25 9 0 15 -9 15 -25z m60 0 c0
-16 -6 -25 -15 -25 -9 0 -15 9 -15 25 0 16 6 25 15 25 9 0 15 -9 15 -25z m150
0 c0 -18 -5 -25 -20 -25 -15 0 -20 7 -20 25 0 18 5 25 20 25 15 0 20 -7 20
-25z m-2870 -56 c0 -38 -24 -35 -28 4 -2 19 1 27 12 27 11 0 16 -10 16 -31z
m138 6 c-2 -14 -7 -26 -13 -26 -5 0 -11 12 -13 26 -2 18 1 25 13 25 12 0 15
-7 13 -25z m80 -2 c-3 -30 -25 -42 -34 -19 -9 22 2 46 21 46 12 0 15 -8 13
-27z m132 -4 c0 -38 -24 -35 -28 4 -2 19 1 27 12 27 11 0 16 -10 16 -31z m228
6 c-2 -14 -7 -26 -13 -26 -5 0 -11 12 -13 26 -2 18 1 25 13 25 12 0 15 -7 13
-25z m70 -2 c-2 -17 -9 -28 -18 -28 -9 0 -16 11 -18 28 -3 22 1 27 18 27 17 0
21 -5 18 -27z m70 0 c-2 -17 -9 -28 -18 -28 -9 0 -16 11 -18 28 -3 22 1 27 18
27 17 0 21 -5 18 -27z m850 0 c-2 -17 -10 -29 -20 -31 -14 -3 -18 3 -18 27 0
25 4 31 21 31 16 0 20 -5 17 -27z m60 2 c-2 -14 -7 -26 -13 -26 -5 0 -11 12
-13 26 -2 18 1 25 13 25 12 0 15 -7 13 -25z m79 5 c4 -23 -13 -44 -31 -37 -9
4 -16 18 -16 32 0 22 4 26 22 23 13 -2 24 -10 25 -18z m-629 -17 c-4 -39 -28
-42 -28 -4 0 21 5 31 16 31 11 0 14 -8 12 -27z m140 0 c-4 -39 -28 -42 -28 -4
0 21 5 31 16 31 11 0 14 -8 12 -27z m132 -3 c0 -31 -16 -41 -26 -15 -8 19 2
45 16 45 5 0 10 -13 10 -30z m1230 -10 c0 -20 -5 -30 -15 -30 -15 0 -21 40 -8
53 14 15 23 6 23 -23z m78 -3 c2 -19 -1 -27 -12 -27 -11 0 -16 10 -16 31 0 38
24 35 28 -4z m62 3 c0 -20 -5 -30 -15 -30 -10 0 -15 10 -15 30 0 20 5 30 15
30 10 0 15 -10 15 -30z m78 -3 c3 -22 -1 -27 -17 -27 -15 0 -21 6 -21 23 0 46
33 49 38 4z m-2718 -52 c0 -18 -5 -25 -20 -25 -15 0 -20 7 -20 25 0 18 5 25
20 25 15 0 20 -7 20 -25z m60 0 c0 -16 -6 -25 -15 -25 -9 0 -15 9 -15 25 0 16
6 25 15 25 9 0 15 -9 15 -25z m140 0 c0 -16 -6 -25 -15 -25 -9 0 -15 9 -15 25
0 16 6 25 15 25 9 0 15 -9 15 -25z m70 0 c0 -16 -6 -25 -15 -25 -9 0 -15 9
-15 25 0 16 6 25 15 25 9 0 15 -9 15 -25z m1220 0 c0 -18 -5 -25 -20 -25 -15
0 -20 7 -20 25 0 18 5 25 20 25 15 0 20 -7 20 -25z m60 0 c0 -16 -6 -25 -15
-25 -9 0 -15 9 -15 25 0 16 6 25 15 25 9 0 15 -9 15 -25z m-1112 -2 c-2 -10
-13 -19 -26 -21 -17 -3 -22 2 -22 17 0 16 6 21 26 21 19 0 25 -5 22 -17z m62
-3 c0 -11 -7 -20 -15 -20 -8 0 -15 9 -15 20 0 11 7 20 15 20 8 0 15 -9 15 -20z
m270 -1 c0 -24 -23 -21 -28 4 -2 10 3 17 12 17 10 0 16 -9 16 -21z m170 -9 c0
-15 -7 -20 -25 -20 -18 0 -25 5 -25 20 0 15 7 20 25 20 18 0 25 -5 25 -20z
m60 0 c0 -11 -7 -20 -15 -20 -8 0 -15 9 -15 20 0 11 7 20 15 20 8 0 15 -9 15
-20z m140 0 c0 -11 -7 -20 -15 -20 -8 0 -15 9 -15 20 0 11 7 20 15 20 8 0 15
-9 15 -20z m1300 -20 c0 -20 -5 -30 -15 -30 -10 0 -15 10 -15 30 0 20 5 30 15
30 10 0 15 -10 15 -30z m60 0 c0 -20 -5 -30 -15 -30 -10 0 -15 10 -15 30 0 20
5 30 15 30 10 0 15 -10 15 -30z m75 0 c0 -13 -6 -25 -12 -27 -9 -3 -13 6 -13
27 0 21 4 30 13 28 6 -3 12 -15 12 -28z m65 0 c0 -20 -5 -30 -15 -30 -10 0
-15 10 -15 30 0 20 5 30 15 30 10 0 15 -10 15 -30z m75 0 c0 -13 -6 -25 -12
-27 -16 -6 -27 21 -19 43 9 23 31 11 31 -16z m75 0 c0 -23 -4 -30 -20 -30 -16
0 -20 7 -20 30 0 23 4 30 20 30 16 0 20 -7 20 -30z m-990 -5 c0 -16 -6 -25
-15 -25 -9 0 -15 9 -15 25 0 16 6 25 15 25 9 0 15 -9 15 -25z m74 9 c7 -19 -1
-34 -19 -34 -18 0 -28 17 -21 35 7 20 32 19 40 -1z m61 -9 c0 -10 -6 -20 -12
-22 -8 -3 -13 5 -13 22 0 17 5 25 13 23 6 -3 12 -13 12 -23z m75 0 c0 -18 -5
-25 -20 -25 -15 0 -20 7 -20 25 0 18 5 25 20 25 15 0 20 -7 20 -25z m140 0 c0
-18 -5 -25 -20 -25 -15 0 -20 7 -20 25 0 18 5 25 20 25 15 0 20 -7 20 -25z
m-2230 -46 c0 -38 -24 -35 -28 4 -2 19 1 27 12 27 11 0 16 -10 16 -31z m78 4
c-2 -17 -10 -29 -20 -31 -14 -3 -18 3 -18 27 0 25 4 31 21 31 16 0 20 -5 17
-27z m137 -3 c0 -13 -6 -25 -12 -27 -16 -6 -27 21 -19 43 9 23 31 11 31 -16z
m63 3 c-4 -39 -28 -42 -28 -4 0 21 5 31 16 31 11 0 14 -8 12 -27z m237 -3 c0
-38 -39 -35 -43 3 -3 25 0 28 20 25 17 -2 23 -9 23 -28z m135 0 c0 -23 -4 -30
-20 -30 -16 0 -20 7 -20 30 0 23 4 30 20 30 16 0 20 -7 20 -30z m140 0 c0 -20
-5 -30 -15 -30 -10 0 -15 10 -15 30 0 20 5 30 15 30 10 0 15 -10 15 -30z m778
7 c2 -12 -3 -17 -17 -17 -15 0 -21 6 -21 21 0 25 33 22 38 -4z m62 3 c0 -11
-7 -20 -15 -20 -8 0 -15 9 -15 20 0 11 7 20 15 20 8 0 15 -9 15 -20z m78 -3
c3 -12 -3 -17 -22 -17 -25 0 -35 18 -19 34 12 12 38 2 41 -17z m-418 -22 c0
-18 -5 -25 -20 -25 -15 0 -20 7 -20 25 0 18 5 25 20 25 15 0 20 -7 20 -25z
m1370 -10 c0 -16 -6 -25 -15 -25 -9 0 -15 9 -15 25 0 16 6 25 15 25 9 0 15 -9
15 -25z m60 0 c0 -16 -6 -25 -15 -25 -9 0 -15 9 -15 25 0 16 6 25 15 25 9 0
15 -9 15 -25z m150 0 c0 -18 -5 -25 -20 -25 -15 0 -20 7 -20 25 0 18 5 25 20
25 15 0 20 -7 20 -25z m-990 -10 c0 -16 -6 -25 -15 -25 -9 0 -15 9 -15 25 0
16 6 25 15 25 9 0 15 -9 15 -25z m140 0 c0 -16 -6 -25 -15 -25 -9 0 -15 9 -15
25 0 16 6 25 15 25 9 0 15 -9 15 -25z m70 0 c0 -18 -5 -25 -20 -25 -15 0 -20
7 -20 25 0 18 5 25 20 25 15 0 20 -7 20 -25z m70 0 c0 -16 -6 -25 -15 -25 -9
0 -15 9 -15 25 0 16 6 25 15 25 9 0 15 -9 15 -25z m70 0 c0 -18 -5 -25 -20
-25 -15 0 -20 7 -20 25 0 18 5 25 20 25 15 0 20 -7 20 -25z m-2150 -40 c0 -18
-5 -25 -20 -25 -15 0 -20 7 -20 25 0 18 5 25 20 25 15 0 20 -7 20 -25z m60 0
c0 -16 -6 -25 -15 -25 -9 0 -15 9 -15 25 0 16 6 25 15 25 9 0 15 -9 15 -25z
m140 0 c0 -16 -6 -25 -15 -25 -9 0 -15 9 -15 25 0 16 6 25 15 25 9 0 15 -9 15
-25z m70 0 c0 -16 -6 -25 -15 -25 -9 0 -15 9 -15 25 0 16 6 25 15 25 9 0 15
-9 15 -25z m1220 0 c0 -18 -5 -25 -20 -25 -15 0 -20 7 -20 25 0 18 5 25 20 25
15 0 20 -7 20 -25z m60 0 c0 -16 -6 -25 -15 -25 -9 0 -15 9 -15 25 0 16 6 25
15 25 9 0 15 -9 15 -25z m75 0 c0 -13 -8 -21 -22 -23 -19 -3 -23 1 -23 23 0
22 4 26 23 23 14 -2 22 -10 22 -23z m-985 -5 c0 -13 -7 -20 -20 -20 -13 0 -20
7 -20 20 0 13 7 20 20 20 13 0 20 -7 20 -20z m298 -13 c4 -20 -25 -34 -40 -19
-15 15 -1 44 19 40 10 -2 19 -11 21 -21z m60 1 c-2 -13 -7 -23 -13 -23 -5 0
-11 10 -13 23 -2 15 2 22 13 22 11 0 15 -7 13 -22z m140 0 c-2 -13 -7 -23 -13
-23 -5 0 -11 10 -13 23 -2 15 2 22 13 22 11 0 15 -7 13 -22z m132 -3 c0 -14
-4 -25 -9 -25 -12 0 -23 29 -15 41 10 18 24 9 24 -16z m530 -15 c0 -20 -5 -30
-15 -30 -15 0 -21 40 -8 53 14 15 23 6 23 -23z m75 0 c0 -18 -6 -26 -22 -28
-18 -3 -23 1 -23 21 0 28 9 39 30 35 9 -2 15 -14 15 -28z m63 -3 c2 -19 -1
-27 -12 -27 -11 0 -16 10 -16 31 0 38 24 35 28 -4z m140 0 c2 -19 -1 -27 -12
-27 -11 0 -16 10 -16 31 0 38 24 35 28 -4z m72 3 c0 -23 -4 -30 -20 -30 -16 0
-20 7 -20 30 0 23 4 30 20 30 16 0 20 -7 20 -30z m288 8 c-5 -32 -28 -35 -28
-4 0 17 5 26 16 26 10 0 14 -7 12 -22z m62 -3 c0 -26 -14 -33 -25 -15 -9 14 1
40 15 40 5 0 10 -11 10 -25z m75 0 c0 -10 -6 -20 -12 -22 -8 -3 -13 5 -13 22
0 17 5 25 13 23 6 -3 12 -13 12 -23z m65 -1 c0 -31 -23 -28 -28 4 -2 15 2 22
12 22 11 0 16 -9 16 -26z m77 10 c8 -21 -13 -42 -28 -27 -13 13 -5 43 11 43 6
0 13 -7 17 -16z m71 -6 c-5 -34 -38 -37 -38 -4 0 20 5 26 21 26 15 0 20 -5 17
-22z m-2868 -63 c0 -16 -6 -25 -15 -25 -9 0 -15 9 -15 25 0 16 6 25 15 25 9 0
15 -9 15 -25z m140 0 c0 -16 -6 -25 -15 -25 -9 0 -15 9 -15 25 0 16 6 25 15
25 9 0 15 -9 15 -25z m80 -1 c0 -33 -33 -30 -38 4 -3 17 2 22 17 22 16 0 21
-6 21 -26z m130 1 c0 -16 -6 -25 -15 -25 -9 0 -15 9 -15 25 0 16 6 25 15 25 9
0 15 -9 15 -25z m230 0 c0 -16 -6 -25 -15 -25 -9 0 -15 9 -15 25 0 16 6 25 15
25 9 0 15 -9 15 -25z m210 0 c0 -16 -6 -25 -15 -25 -9 0 -15 9 -15 25 0 16 6
25 15 25 9 0 15 -9 15 -25z m60 -1 c0 -31 -23 -28 -28 4 -2 15 2 22 12 22 11
0 16 -9 16 -26z m718 9 c-5 -26 -38 -29 -38 -4 0 15 6 21 21 21 14 0 19 -5 17
-17z m140 0 c-2 -10 -12 -18 -23 -18 -11 0 -21 8 -23 18 -3 13 3 17 23 17 20
0 26 -4 23 -17z m-688 -18 c0 -20 -5 -25 -25 -25 -20 0 -25 5 -25 25 0 20 5
25 25 25 20 0 25 -5 25 -25z m140 0 c0 -20 -5 -25 -25 -25 -20 0 -25 5 -25 25
0 20 5 25 25 25 20 0 25 -5 25 -25z m130 0 c0 -18 -5 -25 -20 -25 -15 0 -20 7
-20 25 0 18 5 25 20 25 15 0 20 -7 20 -25z m1228 -10 c-2 -14 -7 -26 -13 -26
-5 0 -11 12 -13 26 -2 18 1 25 13 25 12 0 15 -7 13 -25z m60 0 c-2 -14 -7 -26
-13 -26 -5 0 -11 12 -13 26 -2 18 1 25 13 25 12 0 15 -7 13 -25z m290 -2 c-2
-17 -9 -28 -18 -28 -9 0 -16 11 -18 28 -3 22 1 27 18 27 17 0 21 -5 18 -27z
m-988 -13 c0 -20 -5 -30 -15 -30 -10 0 -15 10 -15 30 0 20 5 30 15 30 10 0 15
-10 15 -30z m75 0 c0 -16 -6 -26 -18 -28 -19 -4 -32 20 -23 44 9 25 41 13 41
-16z m135 0 c0 -23 -4 -30 -20 -30 -16 0 -20 7 -20 30 0 23 4 30 20 30 16 0
20 -7 20 -30z m65 0 c0 -13 -6 -25 -12 -27 -9 -3 -13 6 -13 27 0 21 4 30 13
28 6 -3 12 -15 12 -28z m75 0 c0 -23 -4 -30 -20 -30 -16 0 -20 7 -20 30 0 23
4 30 20 30 16 0 20 -7 20 -30z m-2150 -35 c0 -18 -5 -25 -20 -25 -15 0 -20 7
-20 25 0 18 5 25 20 25 15 0 20 -7 20 -25z m60 0 c0 -16 -6 -25 -15 -25 -9 0
-15 9 -15 25 0 16 6 25 15 25 9 0 15 -9 15 -25z m80 0 c0 -18 -5 -25 -20 -25
-20 0 -28 28 -13 43 15 16 33 6 33 -18z m130 0 c0 -16 -6 -25 -15 -25 -9 0
-15 9 -15 25 0 16 6 25 15 25 9 0 15 -9 15 -25z m370 0 c0 -18 -5 -25 -20 -25
-20 0 -28 28 -13 43 15 16 33 6 33 -18z m850 0 c0 -18 -5 -25 -20 -25 -15 0
-20 7 -20 25 0 18 5 25 20 25 15 0 20 -7 20 -25z m60 0 c0 -16 -6 -25 -15 -25
-9 0 -15 9 -15 25 0 16 6 25 15 25 9 0 15 -9 15 -25z m-550 -15 c0 -20 -5 -30
-15 -30 -10 0 -15 10 -15 30 0 20 5 30 15 30 10 0 15 -10 15 -30z m270 0 c0
-31 -16 -41 -26 -15 -8 19 2 45 16 45 5 0 10 -13 10 -30z m1670 -15 c0 -18 -5
-25 -20 -25 -15 0 -20 7 -20 25 0 18 5 25 20 25 15 0 20 -7 20 -25z m68 3 c-5
-34 -38 -37 -38 -4 0 20 5 26 21 26 15 0 20 -5 17 -22z m72 -3 c0 -18 -5 -25
-20 -25 -15 0 -20 7 -20 25 0 18 5 25 20 25 15 0 20 -7 20 -25z m140 0 c0 -16
-6 -25 -15 -25 -9 0 -15 9 -15 25 0 16 6 25 15 25 9 0 15 -9 15 -25z m60 0 c0
-16 -6 -25 -15 -25 -9 0 -15 9 -15 25 0 16 6 25 15 25 9 0 15 -9 15 -25z
m-1405 -10 c0 -13 -8 -21 -22 -23 -19 -3 -23 1 -23 23 0 22 4 26 23 23 14 -2
22 -10 22 -23z m65 0 c0 -16 -6 -25 -15 -25 -9 0 -15 9 -15 25 0 16 6 25 15
25 9 0 15 -9 15 -25z m140 0 c0 -16 -6 -25 -15 -25 -9 0 -15 9 -15 25 0 16 6
25 15 25 9 0 15 -9 15 -25z m420 5 c0 -11 -7 -20 -15 -20 -8 0 -15 9 -15 20 0
11 7 20 15 20 8 0 15 -9 15 -20z m80 0 c0 -11 -7 -20 -15 -20 -8 0 -15 9 -15
20 0 11 7 20 15 20 8 0 15 -9 15 -20z m60 0 c0 -11 -7 -20 -15 -20 -8 0 -15 9
-15 20 0 11 7 20 15 20 8 0 15 -9 15 -20z m80 0 c0 -21 -24 -28 -35 -10 -8 14
3 30 21 30 8 0 14 -9 14 -20z m-2800 -50 c0 -11 -7 -20 -15 -20 -8 0 -15 9
-15 20 0 11 7 20 15 20 8 0 15 -9 15 -20z m140 0 c0 -11 -7 -20 -15 -20 -8 0
-15 9 -15 20 0 11 7 20 15 20 8 0 15 -9 15 -20z m140 0 c0 -11 -7 -20 -15 -20
-8 0 -15 9 -15 20 0 11 7 20 15 20 8 0 15 -9 15 -20z m240 -5 c0 -20 -5 -25
-25 -25 -20 0 -25 5 -25 25 0 20 5 25 25 25 20 0 25 -5 25 -25z m60 0 c0 -16
-6 -25 -15 -25 -9 0 -15 9 -15 25 0 16 6 25 15 25 9 0 15 -9 15 -25z m140 0
c0 -18 -5 -25 -20 -25 -15 0 -20 7 -20 25 0 18 5 25 20 25 15 0 20 -7 20 -25z
m850 5 c0 -13 -7 -20 -20 -20 -13 0 -20 7 -20 20 0 13 7 20 20 20 13 0 20 -7
20 -20z m60 0 c0 -11 -7 -20 -15 -20 -8 0 -15 9 -15 20 0 11 7 20 15 20 8 0
15 -9 15 -20z m75 0 c0 -8 -10 -16 -22 -18 -18 -3 -23 2 -23 18 0 16 5 21 23
18 12 -2 22 -10 22 -18z m-687 -13 c3 -12 -3 -17 -22 -17 -25 0 -35 18 -19 34
12 12 38 2 41 -17z m202 3 c0 -11 -7 -20 -15 -20 -8 0 -15 9 -15 20 0 11 7 20
15 20 8 0 15 -9 15 -20z m1798 -7 c-2 -17 -9 -28 -18 -28 -9 0 -16 11 -18 28
-3 22 1 27 18 27 17 0 21 -5 18 -27z m67 -3 c0 -13 -6 -25 -12 -27 -16 -6 -27
21 -19 43 9 23 31 11 31 -16z m73 3 c-2 -17 -9 -28 -18 -28 -9 0 -16 11 -18
28 -3 22 1 27 18 27 17 0 21 -5 18 -27z m60 2 c-2 -14 -7 -26 -13 -26 -5 0
-11 12 -13 26 -2 18 1 25 13 25 12 0 15 -7 13 -25z m80 -2 c-4 -39 -28 -42
-28 -4 0 21 5 31 16 31 11 0 14 -8 12 -27z m60 2 c-2 -14 -7 -26 -13 -26 -5 0
-11 12 -13 26 -2 18 1 25 13 25 12 0 15 -7 13 -25z m-838 -15 c0 -20 -5 -30
-15 -30 -10 0 -15 10 -15 30 0 20 5 30 15 30 10 0 15 -10 15 -30z m135 0 c0
-13 -6 -25 -12 -27 -9 -3 -13 6 -13 27 0 21 4 30 13 28 6 -3 12 -15 12 -28z
m140 0 c0 -13 -6 -25 -12 -27 -16 -6 -27 21 -19 43 9 23 31 11 31 -16z m75 0
c0 -23 -4 -30 -20 -30 -16 0 -20 7 -20 30 0 23 4 30 20 30 16 0 20 -7 20 -30z
m-990 -10 c0 -11 -7 -20 -15 -20 -8 0 -15 9 -15 20 0 11 7 20 15 20 8 0 15 -9
15 -20z m140 0 c0 -11 -7 -20 -15 -20 -8 0 -15 9 -15 20 0 11 7 20 15 20 8 0
15 -9 15 -20z m138 3 c-5 -25 -28 -28 -28 -4 0 12 6 21 16 21 9 0 14 -7 12
-17z m72 -3 c0 -13 -7 -20 -20 -20 -13 0 -20 7 -20 20 0 13 7 20 20 20 13 0
20 -7 20 -20z m-2730 -25 c0 -16 -6 -25 -15 -25 -9 0 -15 9 -15 25 0 16 6 25
15 25 9 0 15 -9 15 -25z m80 0 c0 -20 -5 -25 -25 -25 -20 0 -25 5 -25 25 0 20
5 25 25 25 20 0 25 -5 25 -25z m60 0 c0 -16 -6 -25 -15 -25 -9 0 -15 9 -15 25
0 16 6 25 15 25 9 0 15 -9 15 -25z m138 -3 c2 -15 -2 -22 -12 -22 -11 0 -16 9
-16 26 0 31 23 28 28 -4z m72 3 c0 -18 -5 -25 -20 -25 -15 0 -20 7 -20 25 0
18 5 25 20 25 15 0 20 -7 20 -25z m150 -15 c0 -20 -5 -30 -15 -30 -15 0 -21
40 -8 53 14 15 23 6 23 -23z m140 0 c0 -20 -5 -30 -15 -30 -10 0 -15 10 -15
30 0 20 5 30 15 30 10 0 15 -10 15 -30z m75 0 c0 -13 -6 -25 -12 -27 -16 -6
-27 21 -19 43 9 23 31 11 31 -16z m135 0 c0 -20 -5 -30 -15 -30 -15 0 -21 40
-8 53 14 15 23 6 23 -23z m440 0 c0 -20 -5 -30 -15 -30 -10 0 -15 10 -15 30 0
20 5 30 15 30 10 0 15 -10 15 -30z m60 0 c0 -31 -16 -41 -26 -15 -8 19 2 45
16 45 5 0 10 -13 10 -30z m780 0 c0 -20 -5 -30 -15 -30 -10 0 -15 10 -15 30 0
20 5 30 15 30 10 0 15 -10 15 -30z m-612 -12 c-2 -15 -11 -24 -25 -26 -19 -3
-23 1 -23 22 0 21 5 26 26 26 21 0 25 -4 22 -22z m140 0 c-2 -15 -11 -24 -25
-26 -19 -3 -23 1 -23 22 0 21 5 26 26 26 21 0 25 -4 22 -22z m192 -4 c0 -31
-23 -28 -28 4 -2 15 2 22 12 22 11 0 16 -9 16 -26z m1670 -9 c0 -18 -5 -25
-20 -25 -15 0 -20 7 -20 25 0 18 5 25 20 25 15 0 20 -7 20 -25z m68 -3 c3 -17
-2 -22 -17 -22 -16 0 -21 6 -21 26 0 33 33 30 38 -4z m132 3 c0 -16 -6 -25
-15 -25 -9 0 -15 9 -15 25 0 16 6 25 15 25 9 0 15 -9 15 -25z m80 0 c0 -16 -6
-25 -15 -25 -9 0 -15 9 -15 25 0 16 6 25 15 25 9 0 15 -9 15 -25z m-1420 -15
c0 -20 -5 -30 -15 -30 -10 0 -15 10 -15 30 0 20 5 30 15 30 10 0 15 -10 15
-30z m210 0 c0 -23 -4 -30 -20 -30 -16 0 -20 7 -20 30 0 23 4 30 20 30 16 0
20 -7 20 -30z m140 0 c0 -23 -4 -30 -20 -30 -16 0 -20 7 -20 30 0 23 4 30 20
30 16 0 20 -7 20 -30z m290 10 c0 -11 -7 -20 -15 -20 -8 0 -15 9 -15 20 0 11
7 20 15 20 8 0 15 -9 15 -20z m350 0 c0 -13 -7 -20 -20 -20 -13 0 -20 7 -20
20 0 13 7 20 20 20 13 0 20 -7 20 -20z m-3290 -40 c0 -15 -7 -20 -25 -20 -18
0 -25 5 -25 20 0 15 7 20 25 20 18 0 25 -5 25 -20z m60 0 c0 -11 -7 -20 -15
-20 -8 0 -15 9 -15 20 0 11 7 20 15 20 8 0 15 -9 15 -20z m70 0 c0 -13 -7 -20
-20 -20 -13 0 -20 7 -20 20 0 13 7 20 20 20 13 0 20 -7 20 -20z m70 0 c0 -11
-7 -20 -15 -20 -8 0 -15 9 -15 20 0 11 7 20 15 20 8 0 15 -9 15 -20z m1790 -5
c0 -18 -5 -25 -20 -25 -15 0 -20 7 -20 25 0 18 5 25 20 25 15 0 20 -7 20 -25z
m138 3 c-2 -15 -11 -24 -25 -26 -19 -3 -23 1 -23 22 0 21 5 26 26 26 21 0 25
-4 22 -22z m-1628 -8 c0 -13 -7 -20 -20 -20 -13 0 -20 7 -20 20 0 13 7 20 20
20 13 0 20 -7 20 -20z m200 0 c0 -11 -7 -20 -15 -20 -8 0 -15 9 -15 20 0 11 7
20 15 20 8 0 15 -9 15 -20z m238 -2 c3 -13 -3 -18 -22 -18 -20 0 -26 5 -26 21
0 15 5 20 22 17 13 -2 24 -11 26 -20z m200 -1 c2 -12 -3 -17 -17 -17 -12 0
-21 6 -21 13 0 31 32 34 38 4z m2302 -17 c0 -23 -4 -30 -20 -30 -16 0 -20 7
-20 30 0 23 4 30 20 30 16 0 20 -7 20 -30z m140 0 c0 -23 -4 -30 -20 -30 -16
0 -20 7 -20 30 0 23 4 30 20 30 16 0 20 -7 20 -30z m60 0 c0 -20 -5 -30 -15
-30 -10 0 -15 10 -15 30 0 20 5 30 15 30 10 0 15 -10 15 -30z m140 0 c0 -20
-5 -30 -15 -30 -10 0 -15 10 -15 30 0 20 5 30 15 30 10 0 15 -10 15 -30z
m-780 -15 c0 -16 -6 -25 -15 -25 -9 0 -15 9 -15 25 0 16 6 25 15 25 9 0 15 -9
15 -25z m80 0 c0 -16 -6 -25 -15 -25 -9 0 -15 9 -15 25 0 16 6 25 15 25 9 0
15 -9 15 -25z m140 -1 c0 -33 -33 -30 -38 4 -3 17 2 22 17 22 16 0 21 -6 21
-26z m-845 -4 c0 -8 -10 -16 -22 -18 -18 -3 -23 2 -23 18 0 16 5 21 23 18 12
-2 22 -10 22 -18z m205 0 c0 -11 -7 -20 -15 -20 -8 0 -15 9 -15 20 0 11 7 20
15 20 8 0 15 -9 15 -20z m-2660 -30 c0 -20 -5 -30 -15 -30 -15 0 -21 40 -8 53
14 15 23 6 23 -23z m75 0 c0 -29 -32 -41 -41 -16 -9 24 4 48 23 44 12 -2 18
-12 18 -28z m200 0 c0 -13 -6 -25 -12 -27 -9 -3 -13 6 -13 27 0 21 4 30 13 28
6 -3 12 -15 12 -28z m225 -10 c0 -20 -5 -30 -15 -30 -15 0 -21 40 -8 53 14 15
23 6 23 -23z m350 0 c0 -20 -5 -30 -15 -30 -15 0 -21 40 -8 53 14 15 23 6 23
-23z m440 -6 c0 -15 -6 -24 -15 -24 -15 0 -21 40 -9 53 12 11 24 -3 24 -29z
m778 3 c3 -22 -1 -27 -17 -27 -17 0 -21 6 -21 31 0 24 4 30 18 27 10 -2 18
-14 20 -31z m62 -3 c0 -15 -6 -24 -15 -24 -15 0 -21 40 -9 53 12 11 24 -3 24
-29z m890 -24 c0 -20 -5 -30 -15 -30 -10 0 -15 10 -15 30 0 20 5 30 15 30 10
0 15 -10 15 -30z m135 0 c0 -13 -6 -25 -12 -27 -9 -3 -13 6 -13 27 0 21 4 30
13 28 6 -3 12 -15 12 -28z m215 0 c0 -23 -4 -30 -20 -30 -16 0 -20 7 -20 30 0
23 4 30 20 30 16 0 20 -7 20 -30z m218 7 c2 -12 -3 -17 -17 -17 -12 0 -21 6
-21 13 0 31 32 34 38 4z m72 3 c0 -13 -7 -20 -20 -20 -13 0 -20 7 -20 20 0 13
7 20 20 20 13 0 20 -7 20 -20z m140 0 c0 -11 -7 -20 -15 -20 -8 0 -15 9 -15
20 0 11 7 20 15 20 8 0 15 -9 15 -20z m-2285 -20 c0 -29 -32 -41 -41 -16 -9
24 4 48 23 44 12 -2 18 -12 18 -28z m335 0 c0 -16 -5 -30 -10 -30 -14 0 -24
26 -16 45 10 26 26 16 26 -15z m-1710 -30 c0 -11 -7 -20 -15 -20 -8 0 -15 9
-15 20 0 11 7 20 15 20 8 0 15 -9 15 -20z m210 0 c0 -13 -7 -20 -20 -20 -13 0
-20 7 -20 20 0 13 7 20 20 20 13 0 20 -7 20 -20z m1858 -7 c3 -19 -1 -23 -22
-23 -21 0 -26 5 -26 26 0 21 4 25 23 22 14 -2 23 -11 25 -25z m-1568 -3 c0
-11 -7 -20 -15 -20 -8 0 -15 9 -15 20 0 11 7 20 15 20 8 0 15 -9 15 -20z m378
-3 c3 -12 -3 -17 -22 -17 -25 0 -35 18 -19 34 12 12 38 2 41 -17z m132 3 c0
-13 -7 -20 -20 -20 -13 0 -20 7 -20 20 0 13 7 20 20 20 13 0 20 -7 20 -20z
m200 0 c0 -11 -7 -20 -15 -20 -15 0 -21 21 -8 33 12 13 23 7 23 -13z m2170
-25 c0 -18 -5 -25 -20 -25 -15 0 -20 7 -20 25 0 18 5 25 20 25 15 0 20 -7 20
-25z m340 0 c0 -16 -6 -25 -15 -25 -9 0 -15 9 -15 25 0 16 6 25 15 25 9 0 15
-9 15 -25z m-2140 -10 c0 -16 -6 -25 -15 -25 -9 0 -15 9 -15 25 0 16 6 25 15
25 9 0 15 -9 15 -25z m1300 0 c0 -16 -6 -25 -15 -25 -9 0 -15 9 -15 25 0 16 6
25 15 25 9 0 15 -9 15 -25z m200 0 c0 -16 -6 -25 -15 -25 -9 0 -15 9 -15 25 0
16 6 25 15 25 9 0 15 -9 15 -25z m-840 -5 c0 -11 -7 -20 -15 -20 -8 0 -15 9
-15 20 0 11 7 20 15 20 8 0 15 -9 15 -20z m280 0 c0 -11 -7 -20 -15 -20 -8 0
-15 9 -15 20 0 11 7 20 15 20 8 0 15 -9 15 -20z m-2660 -30 c0 -20 -5 -30 -15
-30 -15 0 -21 40 -8 53 14 15 23 6 23 -23z m500 -15 c0 -16 -6 -25 -15 -25 -9
0 -15 9 -15 25 0 16 6 25 15 25 9 0 15 -9 15 -25z m350 0 c0 -16 -6 -25 -15
-25 -9 0 -15 9 -15 25 0 16 6 25 15 25 9 0 15 -9 15 -25z m1280 5 c0 -11 -7
-20 -15 -20 -8 0 -15 9 -15 20 0 11 7 20 15 20 8 0 15 -9 15 -20z m890 -30 c0
-20 -5 -30 -15 -30 -10 0 -15 10 -15 30 0 20 5 30 15 30 10 0 15 -10 15 -30z
m138 -3 c2 -19 -1 -27 -12 -27 -11 0 -16 10 -16 31 0 38 24 35 28 -4z m212 3
c0 -23 -4 -30 -20 -30 -16 0 -20 7 -20 30 0 23 4 30 20 30 16 0 20 -7 20 -30z
m150 5 c0 -18 -5 -25 -20 -25 -15 0 -20 7 -20 25 0 18 5 25 20 25 15 0 20 -7
20 -25z m278 3 c-5 -32 -28 -35 -28 -4 0 17 5 26 16 26 10 0 14 -7 12 -22z
m-2140 -20 c-2 -15 -11 -24 -25 -26 -19 -3 -23 1 -23 22 0 21 5 26 26 26 21 0
25 -4 22 -22z m192 -4 c0 -31 -23 -28 -28 4 -2 15 2 22 12 22 11 0 16 -9 16
-26z m670 1 c0 -16 -6 -25 -15 -25 -9 0 -15 9 -15 25 0 16 6 25 15 25 9 0 15
-9 15 -25z m210 0 c0 -18 -5 -25 -20 -25 -15 0 -20 7 -20 25 0 18 5 25 20 25
15 0 20 -7 20 -25z m-2652 -22 c-3 -31 -34 -44 -44 -19 -9 24 3 46 26 46 17 0
21 -5 18 -27z m132 -4 c0 -24 -4 -30 -17 -27 -11 2 -19 14 -21 31 -3 22 1 27
17 27 17 0 21 -6 21 -31z m140 1 c0 -23 -4 -30 -20 -30 -16 0 -20 7 -20 30 0
23 4 30 20 30 16 0 20 -7 20 -30z m290 -16 c0 -15 -6 -24 -15 -24 -15 0 -21
40 -9 53 12 11 24 -3 24 -29z m1565 6 c0 -18 -6 -26 -22 -28 -18 -3 -23 1 -23
21 0 28 9 39 30 35 9 -2 15 -14 15 -28z m1453 -27 c-2 -17 -10 -29 -20 -31
-14 -3 -18 3 -18 27 0 25 4 31 21 31 16 0 20 -5 17 -27z m202 -4 c0 -38 -24
-35 -28 4 -2 19 1 27 12 27 11 0 16 -10 16 -31z m-1480 -10 c0 -38 -24 -35
-28 4 -2 19 1 27 12 27 11 0 16 -10 16 -31z m210 0 c0 -24 -4 -30 -17 -27 -11
2 -19 14 -21 31 -3 22 1 27 17 27 17 0 21 -6 21 -31z m490 5 c0 -31 -23 -28
-28 4 -2 15 2 22 12 22 11 0 16 -9 16 -26z m217 10 c8 -21 -13 -42 -28 -27
-13 13 -5 43 11 43 6 0 13 -7 17 -16z m-3297 -49 c0 -16 -6 -25 -15 -25 -9 0
-15 9 -15 25 0 16 6 25 15 25 9 0 15 -9 15 -25z m278 -3 c2 -15 -2 -22 -12
-22 -11 0 -16 9 -16 26 0 31 23 28 28 -4z m300 -9 c-2 -17 -10 -29 -20 -31
-14 -3 -18 3 -18 27 0 25 4 31 21 31 16 0 20 -5 17 -27z m1492 7 c0 -13 -7
-20 -20 -20 -13 0 -20 7 -20 20 0 13 7 20 20 20 13 0 20 -7 20 -20z m135 0 c0
-8 -10 -16 -22 -18 -18 -3 -23 2 -23 18 0 16 5 21 23 18 12 -2 22 -10 22 -18z
m815 -35 c0 -16 -6 -25 -15 -25 -9 0 -15 9 -15 25 0 16 6 25 15 25 9 0 15 -9
15 -25z m140 0 c0 -16 -6 -25 -15 -25 -9 0 -15 9 -15 25 0 16 6 25 15 25 9 0
15 -9 15 -25z m210 0 c0 -18 -5 -25 -20 -25 -15 0 -20 7 -20 25 0 18 5 25 20
25 15 0 20 -7 20 -25z m150 5 c0 -13 -7 -20 -20 -20 -13 0 -20 7 -20 20 0 13
7 20 20 20 13 0 20 -7 20 -20z m200 0 c0 -11 -7 -20 -15 -20 -8 0 -15 9 -15
20 0 11 7 20 15 20 8 0 15 -9 15 -20z m-1262 -17 c3 -19 -1 -23 -22 -23 -21 0
-26 5 -26 26 0 21 4 25 23 22 14 -2 23 -11 25 -25z m202 2 c0 -16 -6 -25 -15
-25 -9 0 -15 9 -15 25 0 16 6 25 15 25 9 0 15 -9 15 -25z"/>
</g>
</svg>